PathFileType	4	(X/Y/Z)	./resultDataOpenSim/trcMotMarkerGrf/sub10/qtm-12-03.trc
DataRate	CameraRate	NumFrames	NumMarkers	Units	OrigDataRate	OrigDataStartFrame	OrigNumFrames
250.000000	250.000000	8	24	m	250.000000	175	466
Frame#	Time	L.Toe.Tip			R.Toe.Tip			L.Ankle.Lat			R.Ankle.Lat			L.Ankle.Med			R.Ankle.Med			L.Heel			R.Heel			L.Knee.Lat			R.Knee.Lat			L.Knee.Med			R.Knee.Med			L.Thigh.Upper			R.Thigh.Upper			L.ASIS			R.ASIS			V.Sacral			L.Acromium			R.Acromium			C7			L.Elbow			R.Elbow			L.Wrist.Lat			R.Wrist.Lat
		X1	Y1	Z1	X2	Y2	Z2	X3	Y3	Z3	X4	Y4	Z4	X5	Y5	Z5	X6	Y6	Z6	X7	Y7	Z7	X8	Y8	Z8	X9	Y9	Z9	X10	Y10	Z10	X11	Y11	Z11	X12	Y12	Z12	X13	Y13	Z13	X14	Y14	Z14	X15	Y15	Z15	X16	Y16	Z16	X17	Y17	Z17	X18	Y18	Z18	X19	Y19	Z19	X20	Y20	Z20	X21	Y21	Z21	X22	Y22	Z22	X23	Y23	Z23	X24	Y24	Z24

175	0.696	0.022866373	0.021213307	-0.13349752	-0.71951237	0.038019513	-0.016348035	-0.1095513	0.043441067	-0.170656	-0.7687965	0.16567448	0.037933773	-0.1088998	0.065042175	-0.086589527	-0.72555114	0.15958952	-0.038124657	-0.17584884	0.0096970154	-0.1360092	-0.8079769	0.19315834	-0.014620224	-0.11808892	0.43129407	-0.18944376	-0.45811023	0.40947326	0.071379357	-0.12027342	0.41158565	-0.068171381	-0.41729169	0.39044851	-0.047233081	-0.24787802	0.79529895	-0.24594856	-0.36700621	0.79538181	0.12505741	-0.22377531	0.89932958	-0.16111676	-0.26798612	0.88959835	0.071740969	-0.4411404	0.90354347	-0.094983614	-0.33964958	1.3588427	-0.22258873	-0.36918525	1.3573621	0.10488679	-0.43959111	1.3811113	-0.071049445	-0.48923393	1.0553573	-0.25948359	-0.34734767	0.99776287	0.16182728	-0.45242525	0.82056723	-0.30466865	-0.10985554	0.91826497	0.13148576
176	0.7	0.023740779	0.020457256	-0.13345226	-0.71557076	0.039757942	-0.015568169	-0.10883889	0.043421461	-0.17039592	-0.75901751	0.17009101	0.039205841	-0.10803584	0.064976483	-0.086379912	-0.71580527	0.16280581	-0.03705426	-0.17546681	0.010050645	-0.13592064	-0.79713701	0.19959058	-0.012876884	-0.11098987	0.43129166	-0.18903119	-0.44537729	0.40851023	0.072627619	-0.11325697	0.41216427	-0.068105977	-0.40283898	0.38751127	-0.045669087	-0.23939879	0.79630404	-0.24583133	-0.35875505	0.79485398	0.12487759	-0.21722412	0.90007463	-0.16111833	-0.26120026	0.89014671	0.070669626	-0.43402106	0.90442085	-0.093926376	-0.33262256	1.3591011	-0.22311177	-0.36246063	1.3579132	0.10412529	-0.43212157	1.3813554	-0.071546596	-0.48152567	1.0555867	-0.25992388	-0.34279416	0.99822139	0.1607079	-0.4450037	0.82094914	-0.30618269	-0.10550767	0.91770542	0.13143102
177	0.704	0.024416829	0.019826593	-0.13332302	-0.71086629	0.042235225	-0.01453934	-0.10825949	0.043379555	-0.17021971	-0.74886066	0.17466668	0.040453601	-0.10757525	0.064855987	-0.086333976	-0.7059148	0.16646938	-0.036151825	-0.17510822	0.010311245	-0.13572594	-0.78626212	0.20608838	-0.010786645	-0.10417903	0.43104368	-0.18871847	-0.43243667	0.40744357	0.073958998	-0.10628466	0.41253367	-0.068218559	-0.38799182	0.38445037	-0.044089131	-0.2314283	0.79728319	-0.24579143	-0.35062723	0.79430609	0.12463354	-0.21074539	0.90078056	-0.16111498	-0.2543645	0.89064166	0.069449184	-0.42709865	0.90540363	-0.093052805	-0.32549814	1.3593408	-0.22361228	-0.35574298	1.3584008	0.10336717	-0.42466757	1.3815399	-0.072125383	-0.47382172	1.0557888	-0.26038049	-0.33834915	0.99864719	0.15964389	-0.43741455	0.82129957	-0.30777357	-0.10123166	0.91700477	0.13149852
178	0.708	0.024972473	0.019311713	-0.1331723	-0.70538603	0.045241497	-0.013360948	-0.10778256	0.043364444	-0.17008921	-0.73832976	0.17941937	0.041610925	-0.10743616	0.064695194	-0.086390661	-0.69571679	0.1704243	-0.035334095	-0.17473115	0.010504932	-0.13532171	-0.77516525	0.21260627	-0.0087807929	-0.097689692	0.43061929	-0.18848268	-0.41927724	0.40630217	0.075356575	-0.099377821	0.41270448	-0.068418361	-0.3727213	0.38136835	-0.042466357	-0.22405996	0.79812118	-0.24592553	-0.34264508	0.79375158	0.12433499	-0.20437416	0.9014463	-0.16112455	-0.24751565	0.89107866	0.068144521	-0.42045192	0.90635145	-0.092421196	-0.31829863	1.3595572	-0.22408325	-0.3490439	1.3588177	0.10263557	-0.4172284	1.3816781	-0.072723544	-0.466129	1.0559529	-0.26084419	-0.33398938	0.99902845	0.15862949	-0.42962707	0.82164667	-0.30948746	-0.097012072	0.9161539	0.13169545
179	0.712	0.025481339	0.018884047	-0.13307149	-0.69900724	0.04860062	-0.012051093	-0.1073517	0.043380675	-0.1699551	-0.72744627	0.1843816	0.042609758	-0.10738341	0.064517666	-0.08639389	-0.68514255	0.17455719	-0.034616188	-0.17435166	0.010667397	-0.1347695	-0.76363875	0.21900968	-0.0073968886	-0.091526066	0.43006392	-0.18828355	-0.40588023	0.40510732	0.0767856	-0.092593279	0.41268551	-0.068599029	-0.35710228	0.37835572	-0.040812472	-0.21704568	0.79871718	-0.2462764	-0.33478984	0.79319346	0.12399103	-0.19816193	0.90207238	-0.16114039	-0.2406949	0.89143784	0.066829217	-0.41394438	0.90713348	-0.091913122	-0.3110387	1.3597421	-0.22452234	-0.34232753	1.3591432	0.10192924	-0.40980789	1.3817857	-0.073312059	-0.45843489	1.0560741	-0.26135456	-0.32963965	0.99937741	0.1576781	-0.42159472	0.82204158	-0.31140821	-0.092836193	0.91514314	0.13203947
180	0.716	0.025957542	0.018524919	-0.13303114	-0.69154662	0.05227387	-0.010492226	-0.10693383	0.043393392	-0.16978215	-0.71622759	0.18962626	0.043406368	-0.10720306	0.064351158	-0.086206501	-0.67420965	0.17882695	-0.03402576	-0.174035	0.010830991	-0.1342615	-0.75173612	0.22516249	-0.006838313	-0.085695959	0.42940397	-0.18809133	-0.39224199	0.40388019	0.078199083	-0.086048739	0.41249003	-0.068700046	-0.34130697	0.37549247	-0.039207383	-0.21002838	0.79911429	-0.24677866	-0.32704272	0.79262587	0.12361271	-0.19213608	0.90265646	-0.16114465	-0.23391711	0.89170372	0.065544697	-0.40754721	0.90775729	-0.091291493	-0.30370033	1.3598906	-0.2249345	-0.33555062	1.3593692	0.1012398	-0.40240808	1.3818856	-0.073886722	-0.45069202	1.0561498	-0.26202342	-0.32521298	0.99970983	0.15676374	-0.41329249	0.82252291	-0.31359448	-0.088694432	0.91396357	0.13254838
181	0.72	0.026371607	0.018231008	-0.1330104	-0.68288366	0.056310675	-0.0085046736	-0.10653848	0.043377773	-0.16956697	-0.70467228	0.19525119	0.043976372	-0.10692999	0.064199003	-0.085879583	-0.66297068	0.18325894	-0.033556085	-0.17382072	0.011007411	-0.13390254	-0.73972392	0.23099506	-0.006933372	-0.080236582	0.42866704	-0.18790275	-0.37838317	0.40265359	0.079558369	-0.079859911	0.41214191	-0.068697974	-0.3254936	0.37288279	-0.037744786	-0.20318542	0.79941519	-0.24731828	-0.31941134	0.7920519	0.12320474	-0.18625098	0.90318191	-0.16116358	-0.22716651	0.89187652	0.064298286	-0.40137214	0.90831132	-0.090317236	-0.29626337	1.3600062	-0.22532597	-0.32872257	1.3595089	0.10057192	-0.39502899	1.3820056	-0.074451497	-0.44285206	1.0561766	-0.26295139	-0.32063328	1.0000261	0.15577882	-0.40477896	0.82305047	-0.31595923	-0.084579399	0.91261145	0.13323561
182	0.724	0.026704226	0.017997968	-0.13297207	-0.67302994	0.06073472	-0.0059664322	-0.10619339	0.043343216	-0.16933176	-0.6927793	0.20129218	0.044296575	-0.10672662	0.064048452	-0.085569858	-0.65145335	0.18787731	-0.033170264	-0.173691	0.011189596	-0.13364555	-0.72770002	0.23653045	-0.0074212663	-0.075191761	0.42788998	-0.18773175	-0.36434129	0.40146698	0.080855008	-0.074089947	0.41168301	-0.068577314	-0.30975294	0.37066258	-0.036464007	-0.19698691	0.7996547	-0.24784397	-0.31191323	0.79148534	0.12276532	-0.18040809	0.90362728	-0.16126638	-0.22044177	0.89196941	0.063103035	-0.3954718	0.90882906	-0.088987223	-0.28872491	1.3601005	-0.22570029	-0.32189979	1.3595834	0.099936051	-0.38767131	1.3821639	-0.075009541	-0.4349431	1.0561594	-0.26407201	-0.31586135	1.0003118	0.15463723	-0.39618969	0.82351223	-0.3182733	-0.080483845	0.91109639	0.13411523
